<mxfile host="app.diagrams.net" modified="2023-11-04T00:32:30.370Z" agent="Mozilla/5.0 (Windows NT 10.0; Win64; x64) AppleWebKit/537.36 (KHTML, like Gecko) Chrome/119.0.0.0 Safari/537.36" version="22.0.8" etag="63a2DbhCWiEbNIu1QSsX" type="github">
  <diagram name="PÃ¡gina-1" id="B3KhAklK2BxdYvx4b9fx">
    <mxGraphModel>
      <root>
        <mxCell id="0" />
        <mxCell id="1" parent="0" />
      </root>
    </mxGraphModel>
  </diagram>
</mxfile>
